<?xml version="1.0" encoding="UTF-8"?>
<!DOCTYPE svg PUBLIC "-//W3C//DTD SVG 1.1//EN" "http://www.w3.org/Graphics/SVG/1.1/DTD/svg11.dtd">
<!-- Creator: CorelDRAW -->
<svg xmlns="http://www.w3.org/2000/svg" xml:space="preserve" width="2048px" height="2048px" style="shape-rendering:geometricPrecision; text-rendering:geometricPrecision; image-rendering:optimizeQuality; fill-rule:evenodd; clip-rule:evenodd"
viewBox="0 0 2048 2048"
 xmlns:xlink="http://www.w3.org/1999/xlink">
 <defs>
  <style type="text/css">
   <![CDATA[
    .fil2 {fill:none}
    .fil12 {fill:#00B8D4}
    .fil13 {fill:#37474F}
    .fil7 {fill:#455A64}
    .fil6 {fill:#78909C}
    .fil4 {fill:#B2EBF2}
    .fil1 {fill:#D4E157}
    .fil0 {fill:#E6EE9C}
    .fil3 {fill:#01579B;fill-rule:nonzero}
    .fil8 {fill:#0277BD;fill-rule:nonzero}
    .fil5 {fill:#263238;fill-rule:nonzero}
    .fil11 {fill:#7CB342;fill-rule:nonzero}
    .fil9 {fill:#EF5350;fill-rule:nonzero}
    .fil10 {fill:#FFAB40;fill-rule:nonzero}
   ]]>
  </style>
   <clipPath id="id0">
    <path d="M1024 -0.0011811c565.539,0 1024,458.462 1024,1024 0,565.539 -458.462,1024 -1024,1024 -565.539,0 -1024,-458.462 -1024,-1024 0,-565.539 458.462,-1024 1024,-1024z"/>
   </clipPath>
 </defs>
 <g id="Layer_x0020_1">
  <metadata id="CorelCorpID_0Corel-Layer"/>
  <path class="fil0" d="M1024 -0.0011811c565.539,0 1024,458.462 1024,1024 0,565.539 -458.462,1024 -1024,1024 -565.539,0 -1024,-458.462 -1024,-1024 0,-565.539 458.462,-1024 1024,-1024z"/>
  <g style="clip-path:url(#id0)">
   <g id="_289370744">
    <g>
     <polygon id="_2926752321" class="fil1" points="1052.57,584.083 2188.45,1719.97 2189.76,1721.41 2191.04,1722.87 2192.31,1724.34 2193.57,1725.84 2194.8,1727.34 2196.02,1728.87 2197.21,1730.4 2198.4,1731.96 2199.56,1733.53 2200.7,1735.11 2201.83,1736.71 2202.94,1738.32 2204.03,1739.95 1068.15,604.063 1067.06,602.437 1065.95,600.825 1064.82,599.227 1063.68,597.644 1062.52,596.076 1061.33,594.523 1060.13,592.984 1058.92,591.461 1057.68,589.954 1056.43,588.462 1055.16,586.986 1053.88,585.526 "/>
     <polygon id="_292675112" class="fil1" points="1012.33,877.751 2148.22,2013.63 1878.54,2013.63 742.661,877.751 "/>
     <polygon id="_292676360" class="fil1" points="1285.44,877.751 2421.32,2013.63 2171.55,2013.63 1035.67,877.751 "/>
     <polygon id="_292676384" class="fil1" points="1035.67,877.751 2171.55,2013.63 2171.55,2111.92 1035.67,976.037 "/>
     <polygon id="_292676912" class="fil1" points="1310.71,999.37 2446.59,2135.25 2159.88,2135.25 1024,999.37 "/>
     <polygon id="_292676552" class="fil1" points="742.661,877.751 1878.54,2013.63 1874.81,2013.59 1871.18,2013.45 1867.65,2013.23 1864.21,2012.92 1860.86,2012.52 1857.61,2012.04 1854.44,2011.47 1851.37,2010.83 1848.4,2010.11 1845.51,2009.31 1842.71,2008.43 1840,2007.48 1837.38,2006.46 1834.85,2005.37 1832.4,2004.2 1830.05,2002.97 1827.77,2001.67 1825.59,2000.31 1823.48,1998.89 1821.46,1997.4 1819.53,1995.86 1817.68,1994.25 1815.9,1992.59 680.024,856.71 681.795,858.37 683.649,859.974 685.583,861.52 687.603,863.006 689.705,864.431 691.893,865.792 694.165,867.089 696.524,868.321 698.969,869.483 701.501,870.577 704.121,871.6 706.83,872.551 709.627,873.426 712.515,874.227 715.493,874.949 718.563,875.592 721.725,876.155 724.979,876.636 728.326,877.033 731.768,877.345 735.303,877.569 738.934,877.705 "/>
     <polygon id="_292676816" class="fil1" points="1024,999.37 2159.88,2135.25 1873.36,2135.25 737.483,999.37 "/>
     <polygon id="_292676432" class="fil1" points="1560.67,1444.69 2696.55,2580.58 2481.52,2580.58 1345.64,1444.69 "/>
     <polygon id="_292676624" class="fil1" points="1436.9,1496.12 2572.78,2632 2572.69,2632.77 2572.42,2633.49 2571.99,2634.14 2571.42,2634.71 2570.73,2635.17 2569.94,2635.53 2569.07,2635.75 2568.14,2635.83 1432.25,1499.95 1433.19,1499.87 1434.06,1499.64 1434.85,1499.29 1435.54,1498.82 1436.11,1498.26 1436.54,1497.61 1436.81,1496.89 "/>
     <polygon id="_292676480" class="fil1" points="737.483,999.37 1873.36,2135.25 1873.36,2226.68 737.483,1090.8 "/>
     <polygon id="_292676312" class="fil1" points="987.392,1114.13 2123.27,2250.02 2123.27,2514.74 987.392,1378.85 "/>
     <polygon id="_292677704" class="fil1" points="980.557,1097.63 2116.44,2233.52 2117.94,2235.17 2119.29,2236.97 2120.46,2238.89 2121.44,2240.93 2122.22,2243.08 2122.8,2245.31 2123.15,2247.63 2123.27,2250.02 987.392,1114.13 987.271,1111.75 986.918,1109.43 986.343,1107.2 985.557,1105.05 984.575,1103.01 983.407,1101.09 982.063,1099.29 "/>
     <polygon id="_292677632" class="fil1" points="1083.94,1444.69 2219.82,2580.58 2217.44,2580.46 2215.12,2580.1 2212.88,2579.53 2210.74,2578.74 2208.7,2577.76 2206.78,2576.59 2204.98,2575.25 2203.33,2573.74 1067.44,1437.86 1069.1,1439.36 1070.9,1440.71 1072.82,1441.88 1074.86,1442.86 1077,1443.64 1079.24,1444.22 1081.56,1444.57 "/>
     <polygon id="_292677176" class="fil1" points="1355.57,859.576 2491.45,1995.46 2489.96,1996.65 2488.44,1997.79 2486.88,1998.89 2485.28,1999.94 2483.65,2000.95 2481.98,2001.92 2480.26,2002.85 2478.51,2003.74 2476.71,2004.58 2474.88,2005.39 2472.99,2006.15 2471.06,2006.88 2469.09,2007.56 2467.07,2008.21 2464.99,2008.81 2462.87,2009.38 2460.7,2009.91 2458.48,2010.41 2456.2,2010.86 2453.87,2011.28 2451.49,2011.67 2449.05,2012.02 2446.55,2012.33 2443.99,2012.61 2441.38,2012.85 2438.7,2013.06 2435.97,2013.24 2433.17,2013.38 2430.3,2013.49 2427.37,2013.57 2424.38,2013.62 2421.32,2013.63 1285.44,877.751 1288.5,877.736 1291.49,877.688 1294.42,877.609 1297.28,877.499 1300.08,877.355 1302.82,877.178 1305.5,876.968 1308.11,876.725 1310.67,876.446 1313.17,876.133 1315.61,875.785 1317.99,875.399 1320.32,874.98 1322.6,874.523 1324.82,874.029 1326.99,873.498 1329.11,872.93 1331.18,872.323 1333.21,871.678 1335.18,870.993 1337.11,870.269 1338.99,869.505 1340.83,868.7 1342.63,867.856 1344.38,866.969 1346.1,866.042 1347.77,865.071 1349.4,864.059 1351,863.004 1352.56,861.905 1354.08,860.763 "/>
     <polygon id="_292677752" class="fil1" points="1435.54,1493.41 2571.42,2629.29 2571.99,2629.86 2572.42,2630.51 2572.69,2631.23 2572.78,2632 1436.9,1496.12 1436.81,1495.35 1436.54,1494.63 1436.11,1493.98 "/>
     <polygon id="_292677080" class="fil1" points="1298.97,1444.69 2434.85,2580.58 2219.82,2580.58 1083.94,1444.69 "/>
     <polygon id="_292677776" class="fil1" points="1345.64,1444.69 2481.52,2580.58 2481.52,2614.99 1345.64,1479.11 "/>
     <polygon id="_292677128" class="fil1" points="1212.35,1499.95 2348.23,2635.83 2347.3,2635.75 2346.42,2635.53 2345.64,2635.17 2344.95,2634.71 1209.07,1498.82 1209.75,1499.29 1210.54,1499.64 1211.42,1499.87 "/>
     <polygon id="_292677152" class="fil1" points="987.392,1378.85 2123.27,2514.74 2123.27,2556.48 987.392,1420.6 "/>
     <polygon id="_292677248" class="fil1" points="987.392,1420.6 2123.27,2556.48 2123.15,2558.87 2122.8,2561.18 2122.22,2563.42 2121.44,2565.57 2120.46,2567.6 2119.29,2569.53 2117.94,2571.32 2116.44,2572.98 2114.78,2574.49 2112.98,2575.83 2111.06,2577 2109.02,2577.98 2106.88,2578.77 2104.64,2579.34 2102.32,2579.7 2099.94,2579.82 964.058,1443.93 966.444,1443.81 968.76,1443.46 970.996,1442.89 973.141,1442.1 975.179,1441.12 977.103,1439.95 978.9,1438.61 980.557,1437.1 982.063,1435.44 983.407,1433.65 984.575,1431.72 985.557,1429.68 986.343,1427.54 986.918,1425.3 987.271,1422.99 "/>
     <polygon id="_292677296" class="fil1" points="964.058,1443.93 2099.94,2579.82 1884.91,2579.82 749.03,1443.93 "/>
     <polygon id="_292678232" class="fil1" points="749.03,1443.93 1884.91,2579.82 1884.91,2614.99 749.03,1479.11 "/>
     <polygon id="_292678112" class="fil1" points="838.932,1493.41 1974.81,2629.29 1975.38,2629.86 1975.81,2630.51 1976.08,2631.23 1976.17,2632 840.292,1496.12 840.198,1495.35 839.927,1494.63 839.499,1493.98 "/>
     <polygon id="_292678136" class="fil1" points="840.292,1496.12 1976.17,2632 1976.08,2632.77 1975.81,2633.49 1975.38,2634.14 1974.81,2634.71 1974.13,2635.17 1973.34,2635.53 1972.46,2635.75 1971.53,2635.83 835.647,1499.95 836.584,1499.87 837.455,1499.64 838.244,1499.29 838.932,1498.82 839.499,1498.26 839.927,1497.61 840.198,1496.89 "/>
     <polygon id="_292678184" class="fil1" points="702.362,1443.93 1838.24,2579.82 1623.21,2579.82 487.333,1443.93 "/>
     <polygon id="_292678472" class="fil1" points="615.743,1499.95 1751.62,2635.83 1750.69,2635.75 1749.82,2635.53 1749.03,2635.17 1748.34,2634.71 612.459,1498.82 613.146,1499.29 613.935,1499.64 614.807,1499.87 "/>
     <polygon id="_292678208" class="fil1" points="835.647,1499.95 1971.53,2635.83 1959.32,2637.71 1948.14,2639.47 1937.93,2641.1 1928.61,2642.62 1920.12,2644.01 1912.39,2645.29 1905.35,2646.44 1898.92,2647.47 1893.05,2648.38 1887.66,2649.17 1882.68,2649.83 1878.05,2650.38 1873.69,2650.8 1869.54,2651.11 1865.52,2651.29 1861.58,2651.35 1857.63,2651.29 1853.62,2651.11 1849.47,2650.8 1845.11,2650.38 1840.47,2649.83 1835.5,2649.17 1830.1,2648.38 1824.23,2647.47 1817.81,2646.44 1810.76,2645.29 1803.03,2644.01 1794.54,2642.62 1785.22,2641.1 1775.01,2639.47 1763.83,2637.71 1751.62,2635.83 615.743,1499.95 627.952,1501.82 639.129,1503.58 649.341,1505.22 658.658,1506.74 667.149,1508.13 674.881,1509.4 681.925,1510.56 688.349,1511.59 694.223,1512.5 699.615,1513.28 704.592,1513.95 709.227,1514.5 713.585,1514.92 717.736,1515.22 721.75,1515.41 725.695,1515.47 729.641,1515.41 733.654,1515.22 737.806,1514.92 742.164,1514.5 746.799,1513.95 751.776,1513.28 757.168,1512.5 763.041,1511.59 769.465,1510.56 776.509,1509.4 784.242,1508.13 792.733,1506.74 802.049,1505.22 812.261,1503.58 823.438,1501.82 "/>
     <polygon id="_292678376" class="fil1" points="487.333,1443.93 1623.21,2579.82 1620.83,2579.7 1618.51,2579.34 1616.28,2578.77 1614.13,2577.98 1612.09,2577 1610.17,2575.83 1608.37,2574.49 472.491,1438.61 474.287,1439.95 476.211,1441.12 478.25,1442.1 480.395,1442.89 482.631,1443.46 484.947,1443.81 "/>
     <polygon id="_292678424" class="fil1" points="1584,1379.61 2719.88,2515.5 2719.88,2556.48 1584,1420.6 "/>
     <polygon id="_292677968" class="fil1" points="1432.25,1499.95 2568.14,2635.83 2555.93,2637.71 2544.75,2639.47 2534.54,2641.1 2525.22,2642.62 2516.73,2644.01 2509,2645.29 2501.95,2646.44 2495.53,2647.47 2489.66,2648.38 2484.27,2649.17 2479.29,2649.83 2474.65,2650.38 2470.3,2650.8 2466.14,2651.11 2462.13,2651.29 2458.18,2651.35 2454.24,2651.29 2450.23,2651.11 2446.07,2650.8 2441.72,2650.38 2437.08,2649.83 2432.1,2649.17 2426.71,2648.38 2420.84,2647.47 2414.41,2646.44 2407.37,2645.29 2399.64,2644.01 2391.15,2642.62 2381.83,2641.1 2371.62,2639.47 2360.44,2637.71 2348.23,2635.83 1212.35,1499.95 1224.56,1501.82 1235.74,1503.58 1245.95,1505.22 1255.27,1506.74 1263.76,1508.13 1271.49,1509.4 1278.53,1510.56 1284.96,1511.59 1290.83,1512.5 1296.22,1513.28 1301.2,1513.95 1305.83,1514.5 1310.19,1514.92 1314.34,1515.22 1318.36,1515.41 1322.3,1515.47 1326.25,1515.41 1330.26,1515.22 1334.41,1514.92 1338.77,1514.5 1343.41,1513.95 1348.38,1513.28 1353.78,1512.5 1359.65,1511.59 1366.07,1510.56 1373.12,1509.4 1380.85,1508.13 1389.34,1506.74 1398.66,1505.22 1408.87,1503.58 1420.05,1501.82 "/>
     <polygon id="_292678016" class="fil1" points="1330.62,979.454 2466.51,2115.34 2467.93,2117.06 2469.01,2119.04 2469.68,2121.23 2469.92,2123.59 1334.04,987.704 1333.8,985.352 1333.12,983.162 1332.05,981.18 "/>
     <polygon id="_292679240" class="fil1" points="1336.33,630.208 2472.21,1766.09 2475.01,1769.41 2477.74,1772.79 1341.86,636.904 1339.13,633.527 "/>
     <polygon id="_292679024" class="fil1" points="1341.86,636.904 2477.74,1772.79 2480.38,1776.2 2482.95,1779.66 2485.45,1783.18 2487.87,1786.75 2490.22,1790.36 2492.5,1794.03 2494.69,1797.75 2496.81,1801.51 2498.86,1805.31 2500.82,1809.16 2502.71,1813.05 2504.51,1816.98 2506.24,1820.94 2507.88,1824.94 2509.45,1828.98 2510.93,1833.05 2512.32,1837.16 2513.63,1841.29 2514.86,1845.45 2516,1849.64 2517.05,1853.86 2518.02,1858.1 2518.89,1862.37 2519.68,1866.65 2520.38,1870.96 2520.99,1875.29 2521.5,1879.63 2521.93,1883.99 2522.26,1888.36 2522.5,1892.74 2522.64,1897.14 2522.69,1901.54 1386.81,765.661 1386.76,761.255 1386.61,756.86 1386.38,752.475 1386.05,748.104 1385.62,743.745 1385.11,739.404 1384.5,735.079 1383.8,730.772 1383.01,726.486 1382.13,722.221 1381.17,717.98 1380.12,713.762 1378.98,709.571 1377.75,705.408 1376.44,701.274 1375.04,697.171 1373.56,693.1 1372,689.062 1370.36,685.059 1368.63,681.093 1366.83,677.165 1364.94,673.277 1362.98,669.43 1360.93,665.625 1358.81,661.865 1356.61,658.15 1354.34,654.482 1351.99,650.863 1349.57,647.295 1347.07,643.778 1344.5,640.314 "/>
     <polygon id="_292678952" class="fil1" points="1386.81,765.661 2522.69,1901.54 2522.67,1903.71 2522.64,1905.89 2522.58,1908.06 2522.5,1910.24 2522.39,1912.42 2522.26,1914.61 2522.11,1916.8 2521.93,1918.99 2521.73,1921.18 2521.5,1923.37 2521.25,1925.57 2520.98,1927.76 2520.68,1929.96 2520.35,1932.16 2520,1934.36 2519.63,1936.56 1383.75,800.681 1384.12,798.479 1384.47,796.279 1384.79,794.079 1385.09,791.88 1385.37,789.683 1385.62,787.489 1385.85,785.294 1386.05,783.103 1386.23,780.914 1386.38,778.726 1386.51,776.541 1386.62,774.358 1386.7,772.179 1386.76,770.004 1386.79,767.831 "/>
     <polygon id="_292679168" class="fil1" points="1383.75,800.681 2519.63,1936.56 2519.18,1939.06 2518.72,1941.5 2518.24,1943.9 2517.74,1946.25 2517.22,1948.56 2516.68,1950.82 2516.12,1953.04 2515.54,1955.21 2514.93,1957.34 2514.29,1959.42 2513.64,1961.46 2512.95,1963.46 2512.23,1965.42 2511.49,1967.34 2510.71,1969.22 2509.9,1971.05 2509.05,1972.85 2508.17,1974.61 2507.25,1976.33 2506.3,1978.01 2505.3,1979.66 2504.27,1981.27 2503.2,1982.84 2502.08,1984.38 2500.92,1985.88 2499.71,1987.35 2498.46,1988.78 2497.16,1990.18 2495.81,1991.55 2494.41,1992.88 2492.96,1994.19 2491.45,1995.46 1355.57,859.576 1357.07,858.304 1358.53,857.001 1359.92,855.667 1361.27,854.299 1362.58,852.899 1363.83,851.466 1365.04,849.998 1366.2,848.496 1367.31,846.959 1368.39,845.386 1369.42,843.777 1370.42,842.131 1371.37,840.448 1372.29,838.729 1373.17,836.969 1374.01,835.171 1374.83,833.334 1375.6,831.457 1376.35,829.54 1377.07,827.581 1377.75,825.581 1378.41,823.538 1379.05,821.454 1379.65,819.325 1380.24,817.153 1380.8,814.938 1381.34,812.677 1381.85,810.37 1382.35,808.018 1382.83,805.619 1383.3,803.174 "/>
     <polygon id="_292679072" class="fil1" points="1577.16,1097.63 2713.05,2233.52 2714.55,2235.17 2715.9,2236.97 2717.06,2238.89 2718.05,2240.93 2718.83,2243.08 2719.41,2245.31 2719.76,2247.63 2719.88,2250.02 1584,1114.13 1583.88,1111.75 1583.53,1109.43 1582.95,1107.2 1582.16,1105.05 1581.18,1103.01 1580.01,1101.09 1578.67,1099.29 "/>
     <polygon id="_292678640" class="fil1" points="1584,1420.6 2719.88,2556.48 2719.88,2557.24 1584,1421.36 "/>
     <polygon id="_292678664" class="fil1" points="1584,1421.36 2719.88,2557.24 2719.76,2559.63 2719.41,2561.94 2718.83,2564.18 2718.05,2566.32 2717.07,2568.36 2715.9,2570.29 2714.55,2572.08 2713.05,2573.74 2711.39,2575.25 2709.59,2576.59 2707.67,2577.76 2705.63,2578.74 2703.49,2579.53 2701.25,2580.1 2698.93,2580.46 2696.55,2580.58 1560.67,1444.69 1563.05,1444.57 1565.37,1444.22 1567.61,1443.64 1569.75,1442.86 1571.79,1441.88 1573.71,1440.71 1575.51,1439.36 1577.17,1437.86 1578.67,1436.2 1580.01,1434.41 1581.18,1432.48 1582.17,1430.44 1582.95,1428.3 1583.53,1426.06 1583.88,1423.75 "/>
     <polygon id="_292679264" class="fil1" points="1334.04,987.704 2469.92,2123.59 2469.92,2226.68 1334.04,1090.8 "/>
     <polygon id="_292679120" class="fil1" points="1584,1114.13 2719.88,2250.02 2719.88,2515.5 1584,1379.61 "/>
    </g>
    <path id="_289370864" class="fil1" d="M1334.04 1090.8l226.624 0c12.887,0 23.3339,10.4469 23.3339,23.3339l0.0011811 265.479 -0.0011811 40.9866 0.0011811 0.759449c0,12.8858 -10.4469,23.3339 -23.3339,23.3339l-215.028 0 0 34.4138 86.6162 13.1799c2.56654,0 4.64646,1.71496 4.64646,3.82914 0,2.11417 -2.07992,3.82914 -4.64646,3.82914 -135.985,20.6941 -83.9162,20.6941 -219.903,0 -2.56536,0 -4.64528,-1.71496 -4.64528,-3.82914 0,-2.11417 2.07992,-3.82914 4.64528,-3.82914l86.6186 -13.1799 0 -34.4138 -215.028 0c-12.887,0 -23.3339,-10.448 -23.3232,-23.3339 -0.00826772,-0.252756 -0.011811,-0.505512 -0.011811,-0.759449l0.0011811 -40.9866 -0.0011811 -265.479c0,-12.887 10.4469,-23.3339 23.3339,-23.3339l226.766 0 0 -91.4304 -286.706 0 -286.518 0 0 91.4304 226.575 0c12.8858,0 23.3339,10.4469 23.3339,23.3339l0 264.719 0 41.7461c0,12.8858 -10.448,23.3339 -23.3339,23.3339l-215.028 0 0 35.1733 86.6174 13.1799c2.56536,0 4.64528,1.71496 4.64528,3.82914 0,2.11417 -2.07992,3.82914 -4.64528,3.82914 -135.986,20.6941 -83.9174,20.6941 -219.904,0 -2.56536,0 -4.64528,-1.71496 -4.64528,-3.82914 0,-2.11417 2.07992,-3.82914 4.64528,-3.82914l86.6186 -13.1799 0 -35.1733 -215.029 0c-12.8858,0 -23.3339,-10.448 -23.3339,-23.3339l0 -41.7461 0 -264.719c0,-12.887 10.448,-23.3339 23.3339,-23.3339l226.817 0 0 -103.097c0,-6.44292 5.22402,-11.6669 11.6669,-11.6669l286.518 0 0 -98.2855 -269.673 0c-40.2685,0 -64.0524,-15.6744 -75.0048,-38.2677 -7.82481,-16.1445 -8.17796,-34.9914 -2.7189,-53.5914 4.87678,-16.6158 14.5299,-33.2941 27.5315,-47.3611 21.2421,-22.9843 51.6591,-39.6674 85.4209,-39.0591 -0.0496063,-1.63465 -0.0755906,-3.27047 -0.0755906,-4.90394 0,-44.5725 17.7,-84.9886 46.3134,-114.3 28.7906,-29.491 68.5418,-47.7343 112.424,-47.7343 32.6209,0 62.9752,10.0925 88.2556,27.3992 17.0835,11.6953 31.8201,26.7047 43.3394,44.1307 12.8646,-10.0713 26.9693,-18.5658 42.0402,-25.1988 24.0921,-10.6016 50.5843,-16.4752 78.3508,-16.4752 11.8016,0 23.3209,1.0311 34.4965,2.98937 49.0406,8.60079 90.0627,35.1981 118.826,71.5253 28.5614,36.0709 44.9445,81.7217 44.9445,128.757 0,11.5618 -0.999213,23.2772 -3.05788,35.0197 -4.70788,26.8488 -11.8559,45.4949 -28.1764,58.8957 -15.7028,12.8929 -37.1292,18.1748 -70.1315,18.1748l-249.771 0 0 98.2855 286.706 0c6.44292,0 11.6669,5.22402 11.6669,11.6669l0 103.097z"/>
   </g>
  </g>
  <path class="fil2" d="M1024 -0.0011811c565.539,0 1024,458.462 1024,1024 0,565.539 -458.462,1024 -1024,1024 -565.539,0 -1024,-458.462 -1024,-1024 0,-565.539 458.462,-1024 1024,-1024z"/>
  <path class="fil3" d="M1310.71 1102.11c0,6.44292 5.22402,11.6669 11.6669,11.6669 6.44292,0 11.6669,-5.22402 11.6669,-11.6669l0 -114.405c0,-6.44292 -5.22402,-11.6669 -11.6669,-11.6669l-596.558 0c-6.44292,0 -11.6669,5.22402 -11.6669,11.6669l0 114.405c0,6.44292 5.22402,11.6669 11.6669,11.6669 6.44292,0 11.6669,-5.22402 11.6669,-11.6669l0 -102.738 573.224 0 0 102.738z"/>
  <polygon class="fil4" points="965.951,1385.88 965.951,1116.13 485.439,1116.13 485.439,1385.88 "/>
  <path class="fil5" d="M749.03 1420.6c0,-12.887 -10.448,-23.3339 -23.3339,-23.3339 -12.887,0 -23.3339,10.4469 -23.3339,23.3339l0 58.5071 -86.6186 13.1799c-2.56536,0 -4.64528,1.71496 -4.64528,3.82914 0,2.11417 2.07992,3.82914 4.64528,3.82914 135.986,20.6941 83.9174,20.6941 219.904,0 2.56536,0 4.64528,-1.71496 4.64528,-3.82914 0,-2.11417 -2.07992,-3.82914 -4.64528,-3.82914l-86.6174 -13.1799 0 -58.5071z"/>
  <path class="fil6" d="M487.333 1090.8l476.725 0c12.8858,0 23.3339,10.4469 23.3339,23.3339l0 306.466c0,12.8858 -10.448,23.3339 -23.3339,23.3339l-476.725 0c-12.8858,0 -23.3339,-10.448 -23.3339,-23.3339l0 -306.466c0,-12.887 10.448,-23.3339 23.3339,-23.3339zm10.5461 288.099l455.633 0 0 -255.79 -455.633 0 0 255.79z"/>
  <path class="fil7" d="M987.392 1378.85l0 41.7461c0,12.8858 -10.448,23.3339 -23.3339,23.3339l-476.725 0c-12.8858,0 -23.3339,-10.448 -23.3339,-23.3339l0 -41.7461 33.8799 0 0 0.046063 455.633 0 0 -0.046063 33.8799 0z"/>
  <polygon class="fil4" points="1562.56,1385.88 1562.56,1116.13 1082.05,1116.13 1082.05,1385.88 "/>
  <path class="fil5" d="M1345.64 1420.6c0,-12.887 -10.448,-23.3339 -23.3339,-23.3339 -12.887,0 -23.3339,10.4469 -23.3339,23.3339l0 58.5071 -86.6186 13.1799c-2.56536,0 -4.64528,1.71496 -4.64528,3.82914 0,2.11417 2.07992,3.82914 4.64528,3.82914 135.986,20.6941 83.9174,20.6941 219.903,0 2.56654,0 4.64646,-1.71496 4.64646,-3.82914 0,-2.11417 -2.07992,-3.82914 -4.64646,-3.82914l-86.6162 -13.1799 0 -58.5071z"/>
  <path class="fil6" d="M1083.94 1090.8l476.724 0c12.887,0 23.3339,10.4469 23.3339,23.3339l0 306.466c0,12.8858 -10.4469,23.3339 -23.3339,23.3339l-476.724 0c-12.887,0 -23.3339,-10.448 -23.3339,-23.3339l0 -306.466c0,-12.887 10.4469,-23.3339 23.3339,-23.3339zm10.5461 288.099l455.633 0 0 -255.79 -455.633 0 0 255.79z"/>
  <path class="fil7" d="M1584 1379.61l0 41.7461c0,12.8858 -10.4469,23.3339 -23.3339,23.3339l-476.724 0c-12.887,0 -23.3339,-10.448 -23.3339,-23.3339l0 -41.7461 33.8788 0 0 0.046063 455.633 0 0 -0.046063 33.8799 0z"/>
  <path class="fil3" d="M1035.67 854.417c0,-6.44292 -5.22402,-11.6669 -11.6669,-11.6669 -6.44292,0 -11.6669,5.22402 -11.6669,11.6669l0 133.286c0,6.44174 5.22402,11.6669 11.6669,11.6669 6.44292,0 11.6669,-5.2252 11.6669,-11.6669l0 -133.286z"/>
  <path class="fil8" d="M1188.54 562.389c11.8016,0 23.3209,1.0311 34.4965,2.98937 49.0406,8.60079 90.0627,35.1981 118.826,71.5253 28.5614,36.0709 44.9445,81.7217 44.9445,128.757 0,11.5618 -0.999213,23.2772 -3.05788,35.0197 -4.70788,26.8488 -11.8559,45.4949 -28.1764,58.8957 -15.7028,12.8929 -37.1292,18.1748 -70.1315,18.1748l-542.778 0c-40.2685,0 -64.0524,-15.6744 -75.0048,-38.2677 -7.82481,-16.1445 -8.17796,-34.9914 -2.7189,-53.5914 4.87678,-16.6158 14.5299,-33.2941 27.5315,-47.3611 21.2421,-22.9843 51.6591,-39.6674 85.4209,-39.0591 -0.0496063,-1.63465 -0.0755906,-3.27047 -0.0755906,-4.90394 0,-44.5725 17.7,-84.9886 46.3134,-114.3 28.7906,-29.491 68.5418,-47.7343 112.424,-47.7343 32.6209,0 62.9752,10.0925 88.2556,27.3992 17.0835,11.6953 31.8201,26.7047 43.3394,44.1307 12.8646,-10.0713 26.9693,-18.5658 42.0402,-25.1988 24.0921,-10.6016 50.5843,-16.4752 78.3508,-16.4752z"/>
  <polygon class="fil9" points="1527.83,1401.12 1527.83,1421.67 1548.37,1421.67 1548.37,1401.12 "/>
  <polygon class="fil10" points="1455.87,1421.67 1476.41,1421.67 1476.41,1401.12 1455.87,1401.12 "/>
  <polygon class="fil11" points="1491.79,1401.12 1491.79,1421.67 1512.34,1421.67 1512.34,1401.12 "/>
  <polygon class="fil9" points="933.455,1401.12 933.455,1421.67 954.001,1421.67 954.001,1401.12 "/>
  <polygon class="fil10" points="861.497,1421.67 882.042,1421.67 882.042,1401.12 861.497,1401.12 "/>
  <polygon class="fil11" points="897.424,1401.12 897.424,1421.67 917.969,1421.67 917.969,1401.12 "/>
  <circle class="fil12" cx="725.696" cy="1411.39" r="11.6411"/>
  <circle class="fil13" cx="725.696" cy="1411.39" r="9.90174"/>
  <circle class="fil12" cx="1322.3" cy="1412.15" r="11.6411"/>
  <circle class="fil13" cx="1322.3" cy="1412.15" r="9.90174"/>
 </g>
</svg>
