<?xml version="1.0" encoding="iso-8859-1"?>
<!-- Uploaded to: SVG Repo, www.svgrepo.com, Generator: SVG Repo Mixer Tools -->
<svg height="800px" width="800px" version="1.1" id="Layer_1" xmlns="http://www.w3.org/2000/svg" xmlns:xlink="http://www.w3.org/1999/xlink" 
	 viewBox="0 0 392.519 392.519" xml:space="preserve">
<path style="fill:#FFFFFF;" d="M35.338,370.257l201.374-41.438c4.073-0.84,7.37-3.814,8.469-7.822l42.085-139.766l-76.283-76.348
	L71.281,147.097c-3.943,1.228-6.982,4.461-7.822,8.469L22.085,356.94c-0.905,4.59,1.034,7.887,2.263,9.374
	C27.71,370.257,34.562,370.386,35.338,370.257z"/>
<polygon style="fill:#FFC10D;" points="83.564,166.168 204.841,129.643 262.699,187.501 226.174,308.714 46.651,345.691 "/>
<path style="fill:#56ACE0;" d="M326.958,190.152c14.287,10.925,26.053,9.115,36.267,0c10.408-13.059,9.568-25.083,0-36.267
	L238.457,29.118c-8.469-8.21-22.432-11.378-36.267,0c-10.15,12.412-9.891,24.501,0,36.267L326.958,190.152z"/>
<path style="fill:#194F82;" d="M378.675,138.499L253.778,13.732c-17.519-17.261-48.743-18.747-67.103,0
	c-18.489,18.489-18.489,48.614,0,67.103l6.723,6.723L65.011,126.217c-11.636,3.491-20.428,13.059-22.885,25.018L0.752,352.544
	c-4.978,22.303,15.515,43.766,39.111,39.111l201.309-41.438c11.895-2.457,21.463-11.184,25.018-22.885l38.723-128.517l6.723,6.723
	c22.432,23.208,55.079,14.287,67.103,0C398.392,187.76,395.807,157.829,378.675,138.499z M245.245,321.126
	c-1.228,3.943-4.461,6.982-8.469,7.822L38.053,369.675l94.19-94.19c5.883,3.297,12.671,5.236,19.911,5.236
	c22.432,0,40.663-18.166,40.663-40.663c0-22.497-18.101-40.598-40.598-40.598s-40.663,18.166-40.663,40.663
	c0,7.24,1.939,14.093,5.236,19.911l-94.19,94.319l40.857-198.659c0.84-4.073,3.814-7.37,7.822-8.469l39.952-12.024l25.406,25.406
	c2.133,2.133,4.913,3.168,7.758,3.168c2.844,0,5.56-1.099,7.758-3.168c4.267-4.267,4.267-11.119,0-15.451l-17.131-17.131
	l22.109-6.659l43.184,43.184c2.133,2.133,4.913,3.168,7.758,3.168c2.844,0,5.56-1.099,7.758-3.168
	c4.267-4.267,4.267-11.119,0-15.451l-34.909-34.909l30.319-9.115l76.154,76.218L245.245,321.126z M133.277,240.188
	c0-10.408,8.404-18.877,18.877-18.877c10.473,0,18.877,8.404,18.877,18.877c0,10.473-8.404,18.877-18.877,18.877
	C141.681,259.065,133.277,250.596,133.277,240.188z M363.225,190.152c-10.214,9.115-21.85,10.925-36.267,0L202.19,65.384
	c-9.891-11.766-10.15-23.79,0-36.267c13.834-11.378,27.733-8.21,36.267,0l124.768,124.768
	C372.792,165.069,373.633,177.093,363.225,190.152z"/>
<circle style="fill:#FFFFFF;" cx="152.089" cy="240.188" r="18.877"/>
</svg>