<?xml version="1.0" ?>
<!-- Uploaded to: SVG Repo, www.svgrepo.com, Generator: SVG Repo Mixer Tools -->
<svg width="800px" height="800px" viewBox="0 0 512 512" version="1.1" xml:space="preserve" xmlns="http://www.w3.org/2000/svg" xmlns:xlink="http://www.w3.org/1999/xlink">
<style type="text/css">
	.st0{fill:#333333;}
</style>
<g id="Layer_1"/>
<g id="Layer_2">
<g>
<path class="st0" d="M322.02,69.34H256h-96H85.34c-8.84,0-16,7.16-16,16V294.7v69.45v62.51c0,8.84,7.16,16,16,16h341.32    c8.84,0,16-7.16,16-16v-62.51V294.7V186.45c0-4.34-1.76-8.49-4.88-11.51L333.14,73.83C330.16,70.95,326.17,69.34,322.02,69.34z     M240,101.34v98.72h-64v-98.72H240z M410.66,348.15H101.34V310.7h309.32V348.15z M101.34,410.66v-30.51h309.32v30.51H101.34z     M410.66,278.7H101.34V101.34H144v114.72c0,8.84,7.16,16,16,16h96c8.84,0,16-7.16,16-16V101.34h43.55l95.11,91.9V278.7z"/>
</g>
</g>
</svg>